<svg xmlns="http://www.w3.org/2000/svg" xmlns:xlink="http://www.w3.org/1999/xlink" width="500" zoomAndPan="magnify" viewBox="0 0 375 374.999991" height="500" preserveAspectRatio="xMidYMid meet" version="1.0"><defs><g/><clipPath id="1ef8ca94d1"><path d="M 48.6875 2 L 326.1875 2 L 326.1875 274.5 L 48.6875 274.5 Z M 48.6875 2 " clip-rule="nonzero"/></clipPath></defs><g clip-path="url(#1ef8ca94d1)"><path fill="#ffffff" d="M 187.84375 266.457031 C 123.582031 266.457031 69.96875 220.050781 58.695312 158.976562 L 124.40625 158.976562 C 125.867188 161.292969 127.652344 163.503906 129.832031 165.515625 C 136.875 172.019531 145.0625 173.828125 147.757812 174.425781 C 150.21875 174.972656 154.191406 175.570312 159.027344 175.292969 C 161.265625 191.128906 163.035156 207.460938 162.558594 221.761719 C 162.308594 229.269531 161.324219 238.304688 155.921875 241.550781 C 150.734375 244.664062 143.296875 241.355469 142.464844 240.96875 C 135.550781 237.746094 132.167969 230.363281 131.882812 224.476562 C 131.785156 222.429688 131.546875 217.628906 134.757812 214.207031 C 136.160156 212.71875 139.019531 210.316406 142.394531 210.984375 C 145.300781 211.566406 147.742188 214.238281 148.480469 217.640625 L 156.078125 215.996094 C 154.671875 209.511719 149.894531 204.546875 143.914062 203.359375 C 138.757812 202.335938 133.359375 204.351562 129.09375 208.886719 C 123.625 214.707031 123.980469 222.078125 124.117188 224.855469 C 124.488281 232.472656 128.65625 243.109375 139.179688 248.019531 C 140.9375 248.835938 145.457031 250.671875 150.617188 250.671875 C 153.640625 250.671875 156.882812 250.042969 159.925781 248.214844 C 168.539062 243.039062 170.007812 231.496094 170.328125 222.027344 C 170.824219 207.117188 169.003906 190.339844 166.71875 174.148438 C 167.707031 173.910156 168.714844 173.625 169.738281 173.292969 C 173.230469 172.15625 180.050781 169.324219 186.460938 163.125 C 187.152344 162.449219 188.488281 161.09375 190.078125 159.125 L 222.832031 158.753906 C 225.90625 162.050781 230.28125 164.109375 235.144531 164.109375 C 240.140625 164.109375 244.625 161.929688 247.714844 158.472656 L 317.238281 157.695312 C 306.417969 220.015625 251.574219 266.457031 187.84375 266.457031 Z M 56.539062 138.167969 L 118.328125 138.167969 C 118.539062 142.210938 119.207031 146.738281 120.734375 151.222656 L 57.496094 151.222656 C 56.964844 146.929688 56.640625 142.578125 56.539062 138.167969 Z M 57.253906 121.058594 L 119.980469 121.058594 C 119.441406 123.042969 119.03125 125.097656 118.746094 127.296875 C 118.628906 128.179688 118.519531 129.222656 118.429688 130.390625 L 56.589844 130.390625 C 56.699219 127.261719 56.921875 124.144531 57.253906 121.058594 Z M 60.644531 102.402344 L 129.011719 102.402344 C 126.515625 106.34375 124.46875 109.84375 122.859375 113.289062 L 58.324219 113.289062 C 58.945312 109.613281 59.722656 105.976562 60.644531 102.402344 Z M 144.320312 11.042969 C 151.894531 8.386719 160.417969 10.257812 166 16.03125 C 166.171875 16.203125 166.335938 16.382812 166.5 16.566406 C 172.59375 23.304688 172.523438 31.714844 172.492188 35.308594 C 172.433594 42.371094 170.023438 47.527344 168.582031 50.601562 C 165.871094 56.40625 163.011719 59.414062 158.273438 64.394531 C 156.480469 66.28125 154.449219 68.417969 152.105469 71.046875 C 151.71875 71.480469 142.554688 81.796875 134.621094 93.804688 C 134.4375 94.085938 134.257812 94.355469 134.078125 94.625 L 62.914062 94.625 C 75.40625 56.191406 105.25 24.769531 144.320312 11.042969 Z M 155.4375 102.402344 C 154.546875 103.855469 153.6875 105.605469 153.046875 107.652344 C 152.539062 109.273438 152.207031 111.164062 152.015625 113.289062 L 131.574219 113.289062 C 133.332031 110.050781 135.542969 106.554688 138.265625 102.402344 Z M 126.226562 130.390625 C 126.296875 129.617188 126.375 128.910156 126.457031 128.300781 C 126.785156 125.730469 127.332031 123.375 128.105469 121.058594 L 151.878906 121.058594 C 151.988281 123.921875 152.230469 127.042969 152.582031 130.390625 Z M 153.515625 138.167969 C 154.0625 142.261719 154.707031 146.632812 155.40625 151.222656 L 129.0625 151.222656 C 127.148438 146.890625 126.347656 142.273438 126.105469 138.167969 Z M 157.902344 167.570312 C 154.277344 167.703125 151.316406 167.25 149.433594 166.832031 C 147.25 166.347656 140.601562 164.878906 135.101562 159.804688 C 134.8125 159.535156 134.535156 159.257812 134.257812 158.976562 L 156.597656 158.976562 C 157.03125 161.800781 157.46875 164.667969 157.902344 167.570312 Z M 179.464844 158.976562 C 174.460938 163.265625 169.410156 165.222656 167.335938 165.898438 C 166.746094 166.089844 166.167969 166.261719 165.59375 166.414062 C 165.214844 163.90625 164.835938 161.429688 164.460938 158.976562 Z M 163.269531 151.222656 C 162.582031 146.726562 161.929688 142.332031 161.367188 138.167969 L 192.164062 138.167969 C 190.863281 143.445312 188.476562 147.90625 186.230469 151.222656 Z M 191.839844 121.058594 C 192.226562 122.4375 192.53125 123.816406 192.75 125.171875 C 193.027344 126.957031 193.152344 128.703125 193.144531 130.390625 L 160.410156 130.390625 C 160.042969 127.019531 159.78125 123.882812 159.660156 121.058594 Z M 160.464844 109.980469 C 161.792969 105.726562 164.632812 103.292969 164.636719 103.289062 C 165.039062 102.957031 165.464844 102.664062 165.902344 102.402344 L 179.683594 102.402344 C 183.246094 104.652344 186.421875 108.65625 188.796875 113.289062 L 159.8125 113.289062 C 159.957031 112.027344 160.167969 110.917969 160.464844 109.980469 Z M 243.445312 102.402344 L 243.445312 113.289062 L 197.363281 113.289062 C 196.054688 110.128906 194.433594 107.117188 192.574219 104.445312 C 192.078125 103.730469 191.566406 103.054688 191.046875 102.402344 Z M 251.996094 63.261719 L 299.015625 43.59375 L 299.015625 94.625 L 251.996094 94.625 Z M 299.015625 113.164062 C 296.5625 111.773438 293.730469 110.972656 290.710938 110.972656 C 287.605469 110.972656 284.699219 111.820312 282.195312 113.289062 L 251.996094 113.289062 L 251.996094 102.402344 L 299.015625 102.402344 Z M 251.996094 130.390625 L 251.996094 121.058594 L 275.277344 121.058594 C 274.367188 123.132812 273.859375 125.425781 273.859375 127.832031 C 273.859375 128.703125 273.925781 129.558594 274.054688 130.390625 Z M 200.15625 138.167969 L 220.949219 138.167969 C 219.269531 140.789062 218.292969 143.90625 218.292969 147.25 C 218.292969 148.527344 218.441406 149.773438 218.707031 150.972656 L 195.367188 151.222656 C 197.371094 147.542969 199.175781 143.148438 200.15625 138.167969 Z M 200.925781 130.390625 C 200.929688 128.316406 200.777344 126.167969 200.421875 123.949219 C 200.269531 122.992188 200.078125 122.027344 199.855469 121.058594 L 243.445312 121.058594 L 243.445312 130.390625 Z M 251.996094 150.613281 L 251.996094 138.167969 L 277.402344 138.167969 C 280.480469 142.140625 285.296875 144.691406 290.710938 144.691406 C 296.125 144.691406 300.941406 142.140625 304.019531 138.167969 L 324.105469 138.167969 L 324.105469 130.390625 L 307.5625 130.390625 L 307.5625 121.058594 L 324.105469 121.058594 L 324.105469 113.289062 L 307.5625 113.289062 L 307.5625 102.402344 L 323.324219 102.402344 L 323.324219 94.625 L 307.5625 94.625 L 307.5625 29.132812 L 243.445312 56.753906 L 243.445312 94.625 L 181.726562 94.625 C 179.742188 93.664062 177.6875 93.046875 175.574219 92.796875 C 172.371094 92.425781 168.0625 92.816406 164.035156 94.625 L 143.464844 94.625 C 150.484375 84.578125 157.824219 76.3125 157.90625 76.21875 C 160.164062 73.6875 162.152344 71.601562 163.90625 69.75 C 168.820312 64.582031 172.375 60.851562 175.625 53.898438 C 177.21875 50.484375 180.1875 44.125 180.261719 35.375 C 180.300781 31.261719 180.625 20.117188 172.265625 11.347656 C 172.066406 11.136719 171.863281 10.9375 171.664062 10.734375 C 163.578125 2.675781 151.480469 0.199219 140.746094 4.058594 C 129.839844 7.976562 119.476562 13.257812 109.820312 19.8125 C 97.519531 28.167969 86.679688 38.375 77.601562 50.160156 C 68.421875 62.070312 61.28125 75.289062 56.375 89.4375 C 51.304688 104.074219 48.730469 119.421875 48.730469 135.054688 C 48.730469 153.847656 52.40625 172.070312 59.664062 189.230469 C 66.671875 205.804688 76.699219 220.6875 89.476562 233.46875 C 102.25 246.25 117.125 256.285156 133.691406 263.292969 C 150.84375 270.554688 169.0625 274.234375 187.84375 274.234375 C 221.640625 274.234375 254.226562 261.960938 279.59375 239.671875 C 304.726562 217.589844 321.078125 187.269531 325.640625 154.289062 L 326.253906 149.816406 L 251.996094 150.613281 " fill-opacity="1" fill-rule="nonzero"/></g><g fill="#ffffff" fill-opacity="1"><g transform="translate(6.116858, 357.419391)"><g><path d="M 17.585938 -11.324219 L 17.585938 -60.054688 L 4.460938 -60.054688 L 4.460938 0 L 44.957031 0 L 44.957031 -11.324219 Z M 17.585938 -11.324219 "/></g></g></g><g fill="#ffffff" fill-opacity="1"><g transform="translate(51.666404, 357.419391)"><g><path d="M 36.976562 -22.046875 L 58.597656 -60.054688 L 43.839844 -60.054688 L 30.199219 -34.660156 L 16.644531 -60.054688 L 1.886719 -60.054688 L 23.507812 -22.046875 L 23.507812 0 L 36.976562 0 Z M 36.976562 -22.046875 "/></g></g></g><g fill="#ffffff" fill-opacity="1"><g transform="translate(110.426273, 357.419391)"><g><path d="M 53.363281 -10.039062 L 53.363281 -14.5 C 53.363281 -20.589844 51.046875 -24.621094 44.441406 -27.710938 C 48.730469 -30.371094 52.761719 -34.402344 52.761719 -41.953125 C 52.761719 -52.160156 46.070312 -60.054688 30.371094 -60.054688 L 4.460938 -60.054688 L 4.460938 0 L 17.585938 0 L 17.585938 -21.792969 L 31.914062 -21.792969 C 37.0625 -21.792969 40.238281 -18.789062 40.238281 -14.070312 L 40.238281 -10.039062 C 40.238281 -5.0625 40.578125 -2.574219 41.953125 0 L 55.078125 0 C 53.621094 -2.574219 53.363281 -5.0625 53.363281 -10.039062 Z M 29.855469 -32.085938 L 17.585938 -32.085938 L 17.585938 -48.730469 L 30.113281 -48.730469 C 35.945312 -48.730469 39.207031 -46.15625 39.207031 -40.75 C 39.207031 -35.003906 36.804688 -32.085938 29.855469 -32.085938 Z M 29.855469 -32.085938 "/></g></g></g><g fill="#ffffff" fill-opacity="1"><g transform="translate(166.098011, 357.419391)"><g><path d="M 17.585938 0 L 17.585938 -60.054688 L 4.460938 -60.054688 L 4.460938 0 Z M 17.585938 0 "/></g></g></g><g fill="#ffffff" fill-opacity="1"><g transform="translate(186.427843, 357.419391)"><g><path d="M 31.144531 -10.550781 C 21.960938 -10.550781 16.902344 -18.101562 16.902344 -30.027344 C 16.902344 -42.039062 21.960938 -49.503906 31.144531 -49.503906 C 37.578125 -49.503906 40.492188 -46.757812 42.726562 -40.921875 L 55.679688 -40.921875 C 54.222656 -54.308594 43.324219 -60.828125 30.886719 -60.828125 C 14.414062 -60.828125 3.175781 -49.929688 3.175781 -30.027344 C 3.175781 -10.125 14.414062 0.773438 30.886719 0.773438 C 43.410156 0.773438 54.390625 -5.75 55.851562 -19.21875 L 42.808594 -19.21875 C 40.664062 -13.296875 37.664062 -10.550781 31.144531 -10.550781 Z M 31.144531 -10.550781 "/></g></g></g><g fill="#ffffff" fill-opacity="1"><g transform="translate(243.128954, 357.419391)"><g><path d="M 17.585938 0 L 17.585938 -60.054688 L 4.460938 -60.054688 L 4.460938 0 Z M 17.585938 0 "/></g></g></g><g fill="#ffffff" fill-opacity="1"><g transform="translate(263.458786, 357.419391)"><g><path d="M 33.542969 -34.832031 L 24.277344 -36.71875 C 19.21875 -37.664062 17.929688 -40.324219 17.929688 -43.152344 C 17.929688 -45.898438 20.503906 -50.015625 26.9375 -50.015625 C 33.117188 -50.015625 36.71875 -47.613281 37.40625 -42.382812 L 50.875 -42.382812 C 49.84375 -54.648438 40.492188 -60.828125 26.9375 -60.828125 C 13.382812 -60.828125 4.546875 -53.878906 4.546875 -43.496094 C 4.546875 -32.257812 12.269531 -28.226562 22.304688 -26.253906 L 30.199219 -24.792969 C 36.289062 -23.679688 38.949219 -21.878906 38.949219 -17.5 C 38.949219 -13.46875 34.832031 -10.039062 28.054688 -10.039062 C 20.503906 -10.039062 17.671875 -14.328125 16.730469 -19.644531 L 3.175781 -19.644531 C 3.945312 -6.519531 13.296875 0.773438 27.882812 0.773438 C 41.609375 0.773438 52.503906 -5.492188 52.503906 -17.332031 C 52.503906 -27.367188 47.1875 -32.085938 33.542969 -34.832031 Z M 33.542969 -34.832031 "/></g></g></g><g fill="#ffffff" fill-opacity="1"><g transform="translate(317.414906, 357.419391)"><g><path d="M 49.589844 -60.054688 L 1.886719 -60.054688 L 1.886719 -48.730469 L 19.21875 -48.730469 L 19.21875 0 L 32.34375 0 L 32.34375 -48.730469 L 49.589844 -48.730469 Z M 49.589844 -60.054688 "/></g></g></g></svg>