<svg xmlns="http://www.w3.org/2000/svg" xmlns:xlink="http://www.w3.org/1999/xlink" width="500" zoomAndPan="magnify" viewBox="0 0 375 374.999991" height="500" preserveAspectRatio="xMidYMid meet" version="1.0"><defs><clipPath id="b85f89cece"><path d="M 187.5 0 C 83.945312 0 0 83.945312 0 187.5 C 0 291.054688 83.945312 375 187.5 375 C 291.054688 375 375 291.054688 375 187.5 C 375 83.945312 291.054688 0 187.5 0 " clip-rule="nonzero"/></clipPath><clipPath id="382c5b28c1"><path d="M 30.921875 40 L 344.421875 40 L 344.421875 347 L 30.921875 347 Z M 30.921875 40 " clip-rule="nonzero"/></clipPath></defs><g clip-path="url(#b85f89cece)"><rect x="-37.5" width="450" fill="#2c1f36" y="-37.499999" height="449.999989" fill-opacity="1"/></g><g clip-path="url(#382c5b28c1)"><path fill="#ffffff" d="M 188.128906 338.167969 C 115.53125 338.167969 54.960938 285.804688 42.226562 216.890625 L 116.464844 216.890625 C 118.113281 219.503906 120.128906 221.996094 122.59375 224.269531 C 130.550781 231.609375 139.800781 233.648438 142.839844 234.324219 C 145.621094 234.9375 150.113281 235.613281 155.578125 235.300781 C 158.101562 253.167969 160.105469 271.597656 159.5625 287.734375 C 159.28125 296.207031 158.171875 306.398438 152.066406 310.0625 C 146.203125 313.578125 137.800781 309.84375 136.867188 309.40625 C 129.054688 305.773438 125.230469 297.441406 124.90625 290.796875 C 124.796875 288.488281 124.53125 283.070312 128.15625 279.210938 C 129.742188 277.53125 132.972656 274.820312 136.785156 275.574219 C 140.066406 276.230469 142.828125 279.246094 143.660156 283.085938 L 152.242188 281.226562 C 150.652344 273.910156 145.257812 268.3125 138.5 266.972656 C 132.679688 265.816406 126.574219 268.089844 121.757812 273.207031 C 115.578125 279.777344 115.984375 288.09375 116.136719 291.226562 C 116.554688 299.824219 121.265625 311.824219 133.152344 317.363281 C 135.136719 318.285156 140.242188 320.355469 146.074219 320.355469 C 149.488281 320.355469 153.148438 319.648438 156.585938 317.585938 C 166.320312 311.742188 167.980469 298.71875 168.339844 288.03125 C 168.902344 271.210938 166.84375 252.28125 164.265625 234.011719 C 165.382812 233.742188 166.519531 233.421875 167.675781 233.042969 C 171.621094 231.761719 179.324219 228.566406 186.566406 221.570312 C 187.351562 220.8125 188.859375 219.28125 190.652344 217.058594 L 227.65625 216.640625 C 231.132812 220.359375 236.074219 222.683594 241.566406 222.683594 C 247.210938 222.683594 252.277344 220.222656 255.765625 216.324219 L 334.3125 215.445312 C 322.085938 285.765625 260.128906 338.167969 188.128906 338.167969 Z M 39.789062 193.410156 L 109.597656 193.410156 C 109.835938 197.972656 110.589844 203.082031 112.3125 208.140625 L 40.871094 208.140625 C 40.269531 203.296875 39.90625 198.386719 39.789062 193.410156 Z M 40.597656 174.105469 L 111.460938 174.105469 C 110.855469 176.34375 110.390625 178.664062 110.066406 181.144531 C 109.9375 182.140625 109.8125 183.316406 109.707031 184.636719 L 39.847656 184.636719 C 39.972656 181.101562 40.222656 177.589844 40.597656 174.105469 Z M 44.429688 153.054688 L 121.667969 153.054688 C 118.84375 157.503906 116.53125 161.449219 114.714844 165.335938 L 41.808594 165.335938 C 42.511719 161.191406 43.386719 157.089844 44.429688 153.054688 Z M 138.960938 49.96875 C 147.519531 46.96875 157.148438 49.082031 163.453125 55.59375 C 163.644531 55.789062 163.832031 55.992188 164.015625 56.199219 C 170.902344 63.800781 170.824219 73.292969 170.785156 77.347656 C 170.71875 85.316406 167.996094 91.132812 166.371094 94.605469 C 163.304688 101.15625 160.078125 104.546875 154.722656 110.167969 C 152.699219 112.296875 150.402344 114.707031 147.757812 117.675781 C 147.316406 118.164062 136.964844 129.804688 128 143.351562 C 127.796875 143.671875 127.589844 143.972656 127.390625 144.28125 L 46.992188 144.28125 C 61.105469 100.914062 94.820312 65.453125 138.960938 49.96875 Z M 151.519531 153.054688 C 150.511719 154.691406 149.539062 156.671875 148.816406 158.980469 C 148.246094 160.808594 147.867188 162.941406 147.652344 165.335938 L 124.558594 165.335938 C 126.546875 161.683594 129.042969 157.742188 132.117188 153.054688 Z M 118.515625 184.636719 C 118.597656 183.761719 118.683594 182.964844 118.777344 182.277344 C 119.152344 179.375 119.765625 176.71875 120.640625 174.105469 L 147.5 174.105469 C 147.621094 177.335938 147.894531 180.855469 148.292969 184.636719 Z M 149.347656 193.410156 C 149.964844 198.03125 150.695312 202.960938 151.484375 208.140625 L 121.722656 208.140625 C 119.5625 203.253906 118.65625 198.046875 118.382812 193.410156 Z M 154.304688 226.585938 C 150.210938 226.734375 146.863281 226.222656 144.738281 225.753906 C 142.269531 225.210938 134.761719 223.550781 128.546875 217.824219 C 128.21875 217.519531 127.902344 217.207031 127.589844 216.890625 L 152.828125 216.890625 C 153.316406 220.074219 153.816406 223.308594 154.304688 226.585938 Z M 178.664062 216.890625 C 173.011719 221.726562 167.304688 223.9375 164.964844 224.703125 C 164.296875 224.917969 163.640625 225.113281 162.992188 225.285156 C 162.5625 222.453125 162.136719 219.65625 161.710938 216.890625 Z M 160.367188 208.140625 C 159.59375 203.066406 158.851562 198.109375 158.21875 193.410156 L 193.007812 193.410156 C 191.542969 199.367188 188.84375 204.398438 186.304688 208.140625 Z M 192.644531 174.105469 C 193.078125 175.660156 193.421875 177.214844 193.671875 178.746094 C 193.988281 180.761719 194.128906 182.730469 194.117188 184.636719 L 157.136719 184.636719 C 156.722656 180.832031 156.425781 177.289062 156.289062 174.105469 Z M 157.199219 161.605469 C 158.699219 156.804688 161.90625 154.058594 161.910156 154.054688 C 162.367188 153.683594 162.847656 153.351562 163.34375 153.054688 L 178.910156 153.054688 C 182.933594 155.59375 186.523438 160.109375 189.207031 165.335938 L 156.460938 165.335938 C 156.625 163.914062 156.863281 162.660156 157.199219 161.605469 Z M 250.945312 153.054688 L 250.945312 165.335938 L 198.882812 165.335938 C 197.40625 161.773438 195.574219 158.375 193.476562 155.359375 C 192.910156 154.550781 192.332031 153.789062 191.746094 153.054688 Z M 260.601562 108.890625 L 313.722656 86.699219 L 313.722656 144.28125 L 260.601562 144.28125 Z M 313.722656 165.199219 C 310.953125 163.628906 307.75 162.726562 304.34375 162.726562 C 300.835938 162.726562 297.550781 163.679688 294.722656 165.335938 L 260.601562 165.335938 L 260.601562 153.054688 L 313.722656 153.054688 Z M 260.601562 184.636719 L 260.601562 174.105469 L 286.90625 174.105469 C 285.878906 176.449219 285.304688 179.03125 285.304688 181.75 C 285.304688 182.730469 285.378906 183.695312 285.523438 184.636719 Z M 202.042969 193.410156 L 225.53125 193.410156 C 223.632812 196.371094 222.527344 199.882812 222.527344 203.660156 C 222.527344 205.101562 222.695312 206.507812 222.996094 207.855469 L 196.628906 208.140625 C 198.890625 203.988281 200.933594 199.03125 202.042969 193.410156 Z M 202.90625 184.636719 C 202.914062 182.292969 202.738281 179.867188 202.339844 177.363281 C 202.167969 176.285156 201.953125 175.199219 201.703125 174.105469 L 250.945312 174.105469 L 250.945312 184.636719 Z M 260.601562 207.453125 L 260.601562 193.410156 L 289.304688 193.410156 C 292.785156 197.890625 298.226562 200.773438 304.34375 200.773438 C 310.457031 200.773438 315.898438 197.890625 319.378906 193.410156 L 342.066406 193.410156 L 342.066406 184.636719 L 323.378906 184.636719 L 323.378906 174.105469 L 342.066406 174.105469 L 342.066406 165.335938 L 323.378906 165.335938 L 323.378906 153.054688 L 341.1875 153.054688 L 341.1875 144.28125 L 323.378906 144.28125 L 323.378906 70.378906 L 250.945312 101.546875 L 250.945312 144.28125 L 181.21875 144.28125 C 178.980469 143.195312 176.65625 142.496094 174.269531 142.21875 C 170.652344 141.800781 165.78125 142.238281 161.230469 144.28125 L 137.992188 144.28125 C 145.925781 132.941406 154.214844 123.613281 154.308594 123.511719 C 156.859375 120.652344 159.101562 118.296875 161.085938 116.210938 C 166.640625 110.378906 170.65625 106.167969 174.324219 98.324219 C 176.128906 94.46875 179.480469 87.296875 179.566406 77.421875 C 179.609375 72.78125 179.976562 60.207031 170.53125 50.3125 C 170.304688 50.074219 170.078125 49.847656 169.847656 49.617188 C 160.714844 40.527344 147.046875 37.730469 134.921875 42.085938 C 122.601562 46.507812 110.890625 52.46875 99.984375 59.863281 C 86.085938 69.289062 73.839844 80.808594 63.585938 94.109375 C 53.214844 107.546875 45.148438 122.457031 39.605469 138.425781 C 33.875 154.9375 30.96875 172.257812 30.96875 189.898438 C 30.96875 211.101562 35.125 231.664062 43.320312 251.027344 C 51.234375 269.730469 62.5625 286.523438 77 300.945312 C 91.429688 315.363281 108.238281 326.691406 126.953125 334.597656 C 146.332031 342.789062 166.910156 346.941406 188.128906 346.941406 C 226.308594 346.941406 263.121094 333.09375 291.785156 307.945312 C 320.175781 283.027344 338.648438 248.8125 343.800781 211.597656 L 344.496094 206.554688 L 260.601562 207.453125 " fill-opacity="1" fill-rule="nonzero"/></g></svg>